<svg id="Capa_1" enable-background="new 0 0 497 497" height="512" viewBox="0 0 497 497" width="512" xmlns="http://www.w3.org/2000/svg"><g><g><path d="m221.221 427h-130c-33.138 0-60.001-26.863-60.001-60.001s26.863-60.001 60.001-60.001h130 245.779v120.002z" fill="#efedff"/><path d="m244.999 366.999c0 16.569 13.432 30.001 30.001 30.001l-183.779 30-60.001-60.001 58.537-60.001 185.243 30c-16.569 0-30.001 13.432-30.001 30.001z" fill="#d4d4ff"/></g><path d="m467 336.998h-177-27.44c-64.735 0-123.091-39.008-147.843-98.824l-19.107-76.176 21.322-57.569c23.247-62.766 83.107-104.429 150.04-104.429h23.028 177c16.569 0 30 13.431 30 30v276.998c0 16.569-13.431 30-30 30z" fill="#8288cb"/><path d="m467 397h-377c-16.543 0-30-13.459-30-29.998 0-16.543 13.457-30.004 30-30.004h185c-49.625 0-90-40.375-90-90 0-10.843 0-141.365 0-156.998 0-49.625 40.375-90 90-90h-185c-49.625 0-90 40.375-90 90v276.998c0 49.627 40.375 90.002 90 90.002h377c16.57 0 30-13.432 30-30s-13.43-30-30-30z" fill="#676fb2"/><path d="m100 367.002v109.998c0 11.046 8.954 20 20 20 6.295 0 12.223-2.964 16-8l24-32 24 32c3.777 5.036 9.705 8 16 8 11.046 0 20-8.954 20-20v-109.998z" fill="#ff8e9e"/><g fill="#efedff"><path d="m471.092 144.796c-3.471-2.258-8.116-1.277-10.377 2.193l-12.732 19.559-12.875-19.72c-2.267-3.469-6.911-4.441-10.381-2.18-3.468 2.265-4.444 6.912-2.18 10.381l17.94 27.475-.07 28.406c-.01 4.143 3.34 7.509 7.481 7.519h.019c4.134 0 7.49-3.346 7.5-7.481l.07-28.433 17.798-27.341c2.26-3.473 1.278-8.118-2.193-10.378z"/><path d="m256.765 143.429h-33.135c-4.143 0-7.5 3.357-7.5 7.5s3.357 7.5 7.5 7.5h9.001v52.5c0 4.143 3.357 7.5 7.5 7.5s7.5-3.357 7.5-7.5v-52.5h9.134c4.143 0 7.5-3.357 7.5-7.5s-3.358-7.5-7.5-7.5z"/><path d="m188.751 174.365c-7.371-2.718-14.231-5.679-16.337-6.601-1.634-1.312-1.579-3.142-1.469-3.904.151-1.059.921-3.646 4.772-4.807 8.441-2.551 16.276 3.628 16.511 3.816 3.173 2.63 7.875 2.21 10.529-.947 2.665-3.171 2.256-7.902-.915-10.567-.566-.476-14.068-11.6-30.452-6.665-8.283 2.495-14.144 9.024-15.294 17.038-1.079 7.52 2.181 14.754 8.508 18.878.331.217.679.406 1.04.567.347.154 8.609 3.833 17.915 7.265 2.631.971 8.663 3.709 7.866 8.169-.599 3.353-4.683 6.821-10.48 6.821-5.964 0-11.703-2.403-15.352-6.43-2.783-3.07-7.526-3.302-10.594-.521-3.069 2.782-3.303 7.525-.521 10.594 6.445 7.112 16.34 11.357 26.467 11.357 12.645 0 23.263-8.068 25.247-19.186 1.495-8.364-2.303-19.293-17.441-24.877z"/><path d="m408.837 166.522c0-12.734-10.756-23.094-23.976-23.094h-15.943c-.003 0-.006 0-.01 0s-.006 0-.01 0c-4.143 0-7.5 3.357-7.5 7.5v60c0 4.143 3.357 7.5 7.5 7.5s7.5-3.357 7.5-7.5v-16.984l19.309 21.939c1.482 1.685 3.553 2.545 5.633 2.545 1.76 0 3.527-.616 4.952-1.87 3.109-2.736 3.411-7.476.675-10.585l-15.248-17.325c9.888-2.848 17.118-11.687 17.118-22.126zm-23.976 8.094c-1.957 0-5.276.014-8.376.028-.015-3.021-.028-6.234-.028-8.122 0-1.605-.008-4.926-.017-8.094h8.421c4.865 0 8.976 3.706 8.976 8.094s-4.11 8.094-8.976 8.094z"/><path d="m308.651 143.429c-20.678 0-37.5 16.822-37.5 37.5s16.822 37.5 37.5 37.5 37.5-16.822 37.5-37.5-16.822-37.5-37.5-37.5zm0 60c-12.406 0-22.5-10.094-22.5-22.5s10.094-22.5 22.5-22.5 22.5 10.094 22.5 22.5-10.093 22.5-22.5 22.5z"/><path d="m131.004 143.429c-4.143 0-7.5 3.357-7.5 7.5v60c0 4.143 3.357 7.5 7.5 7.5s7.5-3.357 7.5-7.5v-60c0-4.143-3.358-7.5-7.5-7.5z"/><path d="m101.127 143.429c-4.143 0-7.5 3.357-7.5 7.5v21.471h-26.522v-21.472c0-4.143-3.357-7.5-7.5-7.5s-7.5 3.357-7.5 7.5v60c0 4.143 3.357 7.5 7.5 7.5s7.5-3.357 7.5-7.5v-23.528h26.521v23.528c0 4.143 3.357 7.5 7.5 7.5s7.5-3.357 7.5-7.5v-60c.001-4.142-3.356-7.499-7.499-7.499z"/></g><g fill="#ffdbe0"><ellipse cx="165" cy="103.481" rx="30" ry="25"/><ellipse cx="332" cy="103.481" rx="30" ry="25"/></g><g fill="#313d40"><path d="m182.812 71.281c-4.143 0-7.5 3.357-7.5 7.5v12c0 4.143 3.357 7.5 7.5 7.5s7.5-3.357 7.5-7.5v-12c0-4.142-3.358-7.5-7.5-7.5z"/><path d="m270.222 85.054c-3.125-2.722-7.862-2.396-10.582.727-2.938 3.372-7.182 5.307-11.64 5.307s-8.701-1.935-11.64-5.307c-2.723-3.122-7.461-3.447-10.582-.727-3.122 2.722-3.448 7.459-.727 10.582 5.788 6.642 14.152 10.451 22.948 10.451s17.16-3.81 22.948-10.451c2.723-3.123 2.397-7.861-.725-10.582z"/><path d="m316.318 69.041c-11.803 0-21.405 9.603-21.405 21.406 0 4.143 3.357 7.5 7.5 7.5s7.5-3.357 7.5-7.5c0-3.532 2.873-6.406 6.405-6.406s6.406 2.874 6.406 6.406c0 4.143 3.357 7.5 7.5 7.5s7.5-3.357 7.5-7.5c.001-11.803-9.602-21.406-21.406-21.406z"/></g></g></svg>