<svg id="Capa_1" enable-background="new 0 0 497 497" height="512" viewBox="0 0 497 497" width="512" xmlns="http://www.w3.org/2000/svg"><g><path d="m356 467h-39.615l-45.385-91.22 150 31.22v30z" fill="#a2abb8"/><path d="m356 467h50c8.25 0 15-6.75 15-15v-15h-65z" fill="#c8d2dc"/><path d="m396 46.7h55c8.25 0 15 6.75 15 15v330.3c0 8.25-6.75 15-15 15h-255c-8.25 0-15-6.75-15-15v-107z" fill="#e9edf1"/><path d="m196 46.7h195v277.468c0 8.25-6.75 15-15 15h-40v67.832h-30l-125-345.3c0-8.25 6.75-15 15-15z" fill="#c8d2dc"/><g fill="#a2abb8"><path d="m421 352.5h-105c-4.142 0-7.5-3.357-7.5-7.5s3.358-7.5 7.5-7.5h105c4.142 0 7.5 3.357 7.5 7.5s-3.358 7.5-7.5 7.5z"/><path d="m421 307.5h-105c-4.142 0-7.5-3.357-7.5-7.5s3.358-7.5 7.5-7.5h105c4.142 0 7.5 3.357 7.5 7.5s-3.358 7.5-7.5 7.5z"/><path d="m421 262.5h-105c-4.142 0-7.5-3.357-7.5-7.5s3.358-7.5 7.5-7.5h105c4.142 0 7.5 3.357 7.5 7.5s-3.358 7.5-7.5 7.5z"/><path d="m421 217.5h-105c-4.142 0-7.5-3.357-7.5-7.5s3.358-7.5 7.5-7.5h105c4.142 0 7.5 3.357 7.5 7.5s-3.358 7.5-7.5 7.5z"/><path d="m421 172.5h-105c-4.142 0-7.5-3.357-7.5-7.5s3.358-7.5 7.5-7.5h105c4.142 0 7.5 3.357 7.5 7.5s-3.358 7.5-7.5 7.5z"/><path d="m421 127.5h-105c-4.142 0-7.5-3.357-7.5-7.5s3.358-7.5 7.5-7.5h105c4.142 0 7.5 3.357 7.5 7.5s-3.358 7.5-7.5 7.5z"/></g><path d="m46 91.7c-8.25 0-15 6.75-15 15v382.44c0 4.323 3.537 7.86 7.86 7.86h269.28c4.323 0 7.86-3.537 7.86-7.86v-12.14z" fill="#ffd064"/><path d="m101 91.7h-55v378.16c0 3.927 3.213 7.14 7.14 7.14h262.86v-157z" fill="#fff0af"/><path d="m301 91.7h-200v213.3c0 8.25 6.75 15 15 15h200v-213.3c0-8.25-6.75-15-15-15z" fill="#ffd064"/><path d="m361 300h-225c-8.25 0-15-6.75-15-15v-270c0-8.25 6.75-15 15-15h225c8.25 0 15 6.75 15 15v270c0 8.25-6.75 15-15 15z" fill="#dce7ef"/><path d="m280.972 182.544c-9.116 6.637-55.827 6.637-64.943 0-15.907 21.434-65.029 9.766-65.029 61.402v24.464c0 .878.712 1.59 1.59 1.59h191.82c.878 0 1.59-.712 1.59-1.59v-24.464c0-51.636-49.122-39.968-65.028-61.402z" fill="#81a9c8"/><path d="m280.972 182.544c-3.072-4.14-4.913-9.507-4.913-16.811h-55.118c0 7.305-1.841 12.672-4.913 16.811 9.116 6.637 20.333 10.562 32.472 10.562s23.356-3.925 32.472-10.562z" fill="#4980ac"/><path d="m303.741 86.941c0-30.508-24.732-55.241-55.241-55.241-30.508 0-55.241 24.732-55.241 55.241v30.925c0 30.508 24.732 55.241 55.241 55.241s55.241-24.732 55.241-55.241c0-6.732 0-24.194 0-30.925z" fill="#81a9c8"/></g></svg>