<svg id="Layer_1" height="512" viewBox="0 0 512 512" width="512" xmlns="http://www.w3.org/2000/svg" data-name="Layer 1"><path d="m450.108 320a18.311 18.311 0 0 0 18.276-18.29v-91.42a18.314 18.314 0 0 0 -18.276-18.29h-388.195a18.284 18.284 0 0 0 -18.276 18.29v91.42a18.281 18.281 0 0 0 18.276 18.29zm-438.49 50.292a50.061 50.061 0 0 1 13.554-34.292 50.057 50.057 0 0 1 -13.554-34.29v-91.42a50.059 50.059 0 0 1 13.554-34.29 50.059 50.059 0 0 1 -13.554-34.29v-91.419a50.356 50.356 0 0 1 50.295-50.291h388.2a50.316 50.316 0 0 1 50.248 50.29v91.42a50.059 50.059 0 0 1 -13.561 34.29 50.059 50.059 0 0 1 13.554 34.29v91.42a50.057 50.057 0 0 1 -13.554 34.29 50.061 50.061 0 0 1 13.554 34.291v91.419a50.317 50.317 0 0 1 -50.246 50.29h-388.195a50.357 50.357 0 0 1 -50.295-50.291zm412.282-129.134a16 16 0 1 1 0 32h-114.194a16 16 0 1 1 0-32zm-221.489-2.309a16 16 0 1 1 0 32h-.566a16 16 0 1 1 0-32zm-56.859 0a16 16 0 1 1 0 32h-.567a16 16 0 1 1 0-32zm-40.9 16a15.981 15.981 0 0 1 -16.009 16h-.519a16 16 0 1 1 0-32h.519a15.977 15.977 0 0 1 16.009 16zm-16.009-141.696a16 16 0 1 0 0-32h-.519a16 16 0 1 0 0 32zm56.907 0a16 16 0 1 0 0-32h-.567a16 16 0 1 0 0 32zm56.859 0a16 16 0 1 0 0-32h-.566a16 16 0 1 0 0 32zm91.291-18.309a16.013 16.013 0 0 0 16.009 16.005h114.191a16 16 0 1 0 0-32.005h-114.194a16.015 16.015 0 0 0 -16.009 16zm0 320.005a16.014 16.014 0 0 0 16.009 16h114.191a16 16 0 1 0 0-32h-114.194a16.008 16.008 0 0 0 -16.009 16zm-107.864 2.3a16.009 16.009 0 0 0 16.01 16h.566a16 16 0 1 0 0-32h-.566a16.016 16.016 0 0 0 -16.01 16zm-56.859 0a16.008 16.008 0 0 0 16.009 16h.567a16 16 0 1 0 0-32h-.567a16.015 16.015 0 0 0 -16.009 16zm-40.85-16a16 16 0 1 0 0 32h.519a16 16 0 1 0 0-32z" fill="#4caf50" fill-rule="evenodd"/></svg>