<svg id="Icons" height="512" viewBox="0 0 64 64" width="512" xmlns="http://www.w3.org/2000/svg"><path d="m43 9-17.73-3.95a2.232 2.232 0 0 0 -1.38.14 2.129 2.129 0 0 0 -1 .93 44.89 44.89 0 0 1 -3.23 8.88 45.62 45.62 0 0 1 -10.66 14h34z" fill="#389ba3"/><path d="m43 9v20h-24.74a77.952 77.952 0 0 0 10.74-13 77.073 77.073 0 0 0 5.08-8.99c2.97.66 5.95 1.33 8.92 1.99z" fill="#2a747a"/><path d="m25.89 5.19a2.129 2.129 0 0 0 -1 .93 45.307 45.307 0 0 1 -3.23 8.88 45.626 45.626 0 0 1 -10.66 14h-2a45.626 45.626 0 0 0 10.66-14 45.307 45.307 0 0 0 3.23-8.88 2.129 2.129 0 0 1 1-.93 2.232 2.232 0 0 1 1.38-.14c.21.05.41.09.62.14z" fill="#2a747a"/><path d="m17 28a50.1 50.1 0 0 0 7.152-10.8 49.489 49.489 0 0 0 2.4-5.82 1 1 0 0 1 1.164-.658l8.719 1.943a2 2 0 0 1 1.565 1.947v13.388z" fill="#79c7d1"/><path d="m43 21v8h-34a45.875 45.875 0 0 0 7.12-8z" fill="#2a747a"/><path d="m43 21v8h-24.74a76.994 76.994 0 0 0 7.15-8z" fill="#20575c"/><path d="m18.12 21a45.875 45.875 0 0 1 -7.12 8h-2a45.875 45.875 0 0 0 7.12-8z" fill="#20575c"/><path d="m38 21v7h-21a50.4 50.4 0 0 0 5.07-7z" fill="#389ba3"/><path d="m38 14.61v13.39h-18.73a77.982 77.982 0 0 0 9.73-12q1.47-2.235 2.68-4.4l4.76 1.06a2 2 0 0 1 1.56 1.95z" fill="#389ba3"/><path d="m38 21v7h-18.73a78 78 0 0 0 6.15-7z" fill="#2a747a"/><path d="m31 25a5.01 5.01 0 0 1 -2 4h-6a5 5 0 1 1 8-4z" fill="#99d7ef"/><path d="m31 25a5.01 5.01 0 0 1 -2 4h-6a5 5 0 0 1 0-8h6a5.01 5.01 0 0 1 2 4z" fill="#79c7d1"/><path d="m31 25a5.01 5.01 0 0 1 -2 4h-6a5 5 0 0 1 -1.89-2.93 75.361 75.361 0 0 0 5.06-6.06 4.992 4.992 0 0 1 4.83 4.99z" fill="#79c7d1"/><path d="m31 25a5.01 5.01 0 0 1 -2 4h-6a5 5 0 0 1 -1.89-2.93c1.43-1.54 2.87-3.22 4.31-5.07h3.57a4.976 4.976 0 0 1 2.01 4z" fill="#389ba3"/><circle cx="29" cy="17" fill="#99d7ef" r="1"/><path d="m30 17a1 1 0 0 1 -1.93.37c.32-.45.62-.9.93-1.37a1 1 0 0 1 1 1z" fill="#79c7d1"/><path d="m46 32a38.454 38.454 0 0 0 12.005-13 36.928 36.928 0 0 0 2.73-6.18 2.1 2.1 0 0 0 .143-1.709 2.06 2.06 0 0 0 -1.223-1.221l-18.743-6.771a2.075 2.075 0 0 0 -2.43.82 77.634 77.634 0 0 1 -6.482 12.061 77.96 77.96 0 0 1 -14 16z" fill="#389ba3"/><path d="m41.24 3.24a2.116 2.116 0 0 0 -.76.7 77.361 77.361 0 0 1 -6.48 12.06 78.031 78.031 0 0 1 -14 16h-2a78.031 78.031 0 0 0 14-16 77.361 77.361 0 0 0 6.48-12.06 2.075 2.075 0 0 1 2.43-.82z" fill="#2a747a"/><path d="m60.739 12.82c-.3.89-.66 1.82-1.08 2.78a31.089 31.089 0 0 0 -9.859-9.27l9.86 3.56a2.07 2.07 0 0 1 1.22 1.22 2.136 2.136 0 0 1 -.141 1.71z" fill="#79c7d1"/><path d="m55.42 23a38.966 38.966 0 0 1 -9.42 9h-28a78.29 78.29 0 0 0 8.81-9z" fill="#2a747a"/><path d="m28.81 23a78.29 78.29 0 0 1 -8.81 9h-2a78.29 78.29 0 0 0 8.81-9z" fill="#20575c"/><path d="m28 30a70.709 70.709 0 0 0 9.349-10.69 70.449 70.449 0 0 0 5.2-8.544.992.992 0 0 1 1.209-.485l10.142 3.481a1 1 0 0 1 .552 1.431q-.234.434-.483.867a43.38 43.38 0 0 1 -12.969 13.94z" fill="#79c7d1"/><path d="m48.95 23a46.09 46.09 0 0 1 -7.95 7h-13a71.562 71.562 0 0 0 6.54-7z" fill="#389ba3"/><circle cx="47" cy="16" fill="#99d7ef" r="1"/><circle cx="41.096" cy="23.096" fill="#99d7ef" r="5"/><path d="m46.1 23.1a5 5 0 0 1 -10 0 .34.34 0 0 1 .01-.1h9.98a.34.34 0 0 1 .01.1z" fill="#79c7d1"/><rect fill="#f49f69" height="36" rx="6" width="54" x="7" y="25"/><path d="m61 31v9a15.005 15.005 0 0 0 -15-15h9a6 6 0 0 1 6 6z" fill="#f7b68b"/><path d="m20.69 61h-7.69a6 6 0 0 1 -6-6v-6.76a31.058 31.058 0 0 0 13.69 12.76z" fill="#d2824c"/><path d="m22 41v8a4 4 0 0 1 -4 4h-11v-16h11a4 4 0 0 1 4 4z" fill="#9e6239"/><rect fill="#d2824c" height="16" rx="4" width="20" x="3" y="35"/><circle cx="14.5" cy="43.5" fill="#9e6239" r="2"/><circle cx="15" cy="43" fill="#ffbb63" r="2"/><path d="m48.5 56.5h-6a1 1 0 0 1 0-2h6a1 1 0 0 1 0 2z" fill="#d2824c"/><path d="m54.5 56.5h-2a1 1 0 0 1 0-2h2a1 1 0 0 1 0 2z" fill="#d2824c"/><g fill="#f4d19d"><path d="m49 56h-6a1 1 0 0 1 0-2h6a1 1 0 0 1 0 2z"/><path d="m55 56h-2a1 1 0 0 1 0-2h2a1 1 0 0 1 0 2z"/></g></svg>